<?xml version="1.0" encoding="utf-8"?>
<!-- Generated by IcoMoon.io -->
<!DOCTYPE svg PUBLIC "-//W3C//DTD SVG 1.1//EN" "http://www.w3.org/Graphics/SVG/1.1/DTD/svg11.dtd">
<svg version="1.1" xmlns="http://www.w3.org/2000/svg" xmlns:xlink="http://www.w3.org/1999/xlink" width="576" height="512" viewBox="0 0 576 512">
<g id="icomoon-ignore">
</g>
<path d="M544 450.583c0 22.75 13.014 42.454 32 52.092v7.969c-5.313 0.727-10.736 1.112-16.25 1.112-34.004 0-64.674-14.264-86.361-37.132-13.111 3.491-27.001 5.376-41.389 5.376-79.529 0-144-57.308-144-128s64.471-128 144-128c79.529 0 144 57.308 144 128 0 27.674-9.882 53.296-26.678 74.233-3.412 7.412-5.322 15.656-5.322 24.35zM256 0c139.229 0 252.496 90.307 255.918 202.76-24.591-10.96-51.793-16.76-79.918-16.76-47.78 0-92.908 16.723-127.069 47.089-35.423 31.486-54.931 73.717-54.931 118.911 0 22.336 4.772 43.944 13.868 63.894-2.614 0.063-5.234 0.106-7.868 0.106-13.578 0-26.905-0.867-39.912-2.522-54.989 54.989-120.625 64.85-184.088 66.298v-13.458c34.268-16.789 64-47.37 64-82.318 0-4.877-0.379-9.665-1.082-14.348-57.898-38.132-94.918-96.377-94.918-161.652 0-114.875 114.615-208 256-208z"></path>
</svg>
