<?xml version="1.0" encoding="utf-8"?>
<!-- Generated by IcoMoon.io -->
<!DOCTYPE svg PUBLIC "-//W3C//DTD SVG 1.1//EN" "http://www.w3.org/Graphics/SVG/1.1/DTD/svg11.dtd">
<svg version="1.1" xmlns="http://www.w3.org/2000/svg" xmlns:xlink="http://www.w3.org/1999/xlink" width="512" height="512" viewBox="0 0 512 512">
<g id="icomoon-ignore">
</g>
<path d="M256 0c-141.385 0-256 114.615-256 256s114.615 256 256 256 256-114.615 256-256-114.615-256-256-256zM128 128h256c4.569 0 9.002 0.981 13.072 2.831l-141.072 164.584-141.072-164.585c4.070-1.848 8.503-2.83 13.072-2.83zM96 352v-192c0-0.67 0.028-1.336 0.070-2l93.832 109.471-92.799 92.799c-0.722-2.668-1.103-5.443-1.103-8.27zM384 384h-256c-2.827 0-5.601-0.381-8.27-1.104l91.059-91.059 45.211 52.749 45.212-52.747 91.058 91.060c-2.67 0.72-5.443 1.101-8.27 1.101zM416 352c0 2.827-0.381 5.6-1.103 8.27l-92.8-92.799 93.833-109.471c0.042 0.664 0.070 1.33 0.070 2v192z"></path>
</svg>
