<?xml version="1.0" encoding="utf-8"?>
<!-- Generated by IcoMoon.io -->
<!DOCTYPE svg PUBLIC "-//W3C//DTD SVG 1.1//EN" "http://www.w3.org/Graphics/SVG/1.1/DTD/svg11.dtd">
<svg version="1.1" xmlns="http://www.w3.org/2000/svg" xmlns:xlink="http://www.w3.org/1999/xlink" width="512" height="512" viewBox="0 0 512 512">
<g id="icomoon-ignore">
</g>
<path d="M368 0h-224c-26.4 0-48 21.6-48 48v416c0 26.4 21.6 48 48 48h224c26.4 0 48-21.6 48-48v-416c0-26.4-21.6-48-48-48zM192 24h128v16h-128v-16zM256 480c-17.673 0-32-14.327-32-32s14.327-32 32-32 32 14.327 32 32-14.327 32-32 32zM384 384h-256v-320h256v320z"></path>
</svg>
