<?xml version="1.0" encoding="utf-8"?>
<!-- Generated by IcoMoon.io -->
<!DOCTYPE svg PUBLIC "-//W3C//DTD SVG 1.1//EN" "http://www.w3.org/Graphics/SVG/1.1/DTD/svg11.dtd">
<svg version="1.1" xmlns="http://www.w3.org/2000/svg" xmlns:xlink="http://www.w3.org/1999/xlink" width="512" height="512" viewBox="0 0 512 512">
<g id="icomoon-ignore">
</g>
<path d="M215.1 449c-84.8 8.4-158-30-163.5-85.6-5.5-55.7 58.8-107.5 143.5-115.9 84.8-8.4 158 30 163.4 85.6 5.6 55.7-58.7 107.6-143.4 115.9zM384.6 264.3c-7.2-2.2-12.2-3.6-8.4-13.1 8.2-20.6 9-38.3 0.1-51-16.6-23.7-62.1-22.5-114.2-0.6 0 0-16.4 7.1-12.2-5.8 8-25.8 6.8-47.3-5.7-59.8-28.3-28.3-103.5 1.1-168 65.6-48.2 48.1-76.2 99.4-76.2 143.7 0 84.6 108.6 136.1 214.8 136.1 139.2 0 231.9-80.9 231.9-145.1 0-38.9-32.7-60.9-62.1-70z"></path>
<path d="M477.1 109.3c-33.6-37.3-83.2-51.5-129-41.8v0c-10.6 2.3-17.3 12.7-15 23.2 2.3 10.6 12.6 17.3 23.2 15 32.6-6.9 67.8 3.2 91.7 29.7s30.4 62.6 20.1 94.2v0c-3.3 10.3 2.3 21.3 12.6 24.7 10.3 3.3 21.3-2.3 24.7-12.6v-0.1c14.4-44.2 5.3-95-28.3-132.3z"></path>
<path d="M425.4 156c-16.4-18.2-40.6-25.1-62.8-20.3-9.1 1.9-14.9 11-13 20.1 2 9.1 11 14.9 20 12.9v0c10.9-2.3 22.7 1.1 30.7 9.9 8 8.9 10.2 21 6.7 31.6v0c-2.8 8.8 2 18.4 10.9 21.3 8.9 2.8 18.4-2 21.3-10.9 7-21.7 2.6-46.5-13.8-64.6z"></path>
<path d="M219.8 348.3c-3 5.1-9.5 7.5-14.6 5.4-5.1-2-6.6-7.8-3.7-12.7 3-4.9 9.3-7.3 14.3-5.4 5 1.8 6.8 7.5 4 12.7zM192.7 382.9c-8.2 13.1-25.8 18.8-39 12.8-13-5.9-16.9-21.1-8.7-33.9 8.1-12.7 25.1-18.4 38.2-12.9 13.3 5.7 17.6 20.8 9.5 34zM223.5 290.3c-40.3-10.5-85.9 9.6-103.4 45.1-17.9 36.2-0.6 76.5 40.1 89.7 42.2 13.6 92-7.3 109.3-46.3 17.1-38.3-4.2-77.6-46-88.5z"></path>
</svg>
